<svg width="47" height="46" viewBox="0 0 47 46" fill="#fcfcfc" xmlns="http://www.w3.org/2000/svg">
<path fill-rule="evenodd" clip-rule="evenodd" d="M23.5 0C10.5213 0 0 10.2975 0 23C0 35.7025 10.5213 46 23.5 46C36.4787 46 47 35.7025 47 23C47 10.2975 36.4787 0 23.5 0ZM18.3332 10.8076C19.6701 10.7481 20.0973 10.7335 23.5012 10.7335H23.4973C26.9022 10.7335 27.3278 10.7481 28.6647 10.8076C29.999 10.8674 30.9103 11.0742 31.7093 11.3775C32.5344 11.6906 33.2316 12.1097 33.9288 12.792C34.6259 13.4739 35.0542 14.1583 35.3753 14.9651C35.6834 15.745 35.895 16.6364 35.9576 17.9423C36.0177 19.2508 36.0333 19.6689 36.0333 23.0003C36.0333 26.3318 36.0177 26.7488 35.9576 28.0573C35.895 29.3627 35.6834 30.2543 35.3753 31.0346C35.0542 31.8411 34.6259 32.5255 33.9288 33.2073C33.2324 33.8896 32.5342 34.3098 31.7101 34.6231C30.9126 34.9264 30.0008 35.1332 28.6665 35.193C27.3296 35.2525 26.9038 35.2671 23.4996 35.2671C20.096 35.2671 19.6691 35.2525 18.3322 35.193C16.9981 35.1332 16.0871 34.9264 15.2897 34.6231C14.4659 34.3098 13.7666 33.8896 13.0702 33.2073C12.3733 32.5255 11.9451 31.8411 11.6247 31.0343C11.315 30.2543 11.1038 29.3629 11.0424 28.057C10.9818 26.7486 10.9667 26.3318 10.9667 23.0003C10.9667 19.6689 10.9823 19.2505 11.0421 17.9421C11.1022 16.6367 11.3137 15.745 11.6244 14.9648C11.9456 14.1583 12.3738 13.4739 13.071 12.792C13.7676 12.11 14.4669 11.6908 15.2912 11.3775C16.0882 11.0742 16.9989 10.8674 18.3332 10.8076Z"/>
<path fill-rule="evenodd" clip-rule="evenodd" d="M22.3769 12.9439C22.5952 12.9435 22.83 12.9436 23.0835 12.9437L23.5012 12.9439C26.8476 12.9439 27.2443 12.9556 28.5658 13.0144C29.7878 13.0691 30.451 13.2689 30.8928 13.4368C31.4777 13.6592 31.8947 13.925 32.3331 14.3543C32.7718 14.7836 33.0434 15.1925 33.271 15.765C33.4426 16.1969 33.647 16.846 33.7027 18.042C33.7627 19.3351 33.7758 19.7236 33.7758 22.9973C33.7758 26.271 33.7627 26.6594 33.7027 27.9525C33.6468 29.1486 33.4426 29.7977 33.271 30.2296C33.0439 30.802 32.7718 31.2096 32.3331 31.6387C31.8945 32.0681 31.478 32.3338 30.8928 32.5562C30.4515 32.7248 29.7878 32.9242 28.5658 32.9789C27.2445 33.0376 26.8476 33.0504 23.5012 33.0504C20.1545 33.0504 19.7579 33.0376 18.4366 32.9789C17.2146 32.9237 16.5514 32.7238 16.1093 32.5559C15.5244 32.3336 15.1067 32.0678 14.668 31.6385C14.2293 31.2091 13.9578 30.8012 13.7301 30.2285C13.5585 29.7966 13.3541 29.1475 13.2984 27.9515C13.2384 26.6584 13.2264 26.2699 13.2264 22.9942C13.2264 19.7185 13.2384 19.3321 13.2984 18.0389C13.3543 16.8429 13.5585 16.1938 13.7301 15.7614C13.9572 15.1889 14.2293 14.78 14.668 14.3507C15.1067 13.9214 15.5244 13.6556 16.1093 13.4327C16.5511 13.2641 17.2146 13.0647 18.4366 13.0098C19.5929 12.9587 20.0409 12.9434 22.3769 12.9408V12.9439ZM30.1915 14.9806C29.3611 14.9806 28.6874 15.6391 28.6874 16.4521C28.6874 17.2647 29.3611 17.9241 30.1915 17.9241C31.0218 17.9241 31.6955 17.2647 31.6955 16.4521C31.6955 15.6394 31.0218 14.98 30.1915 14.98V14.9806ZM17.0647 23.0001C17.0647 19.5213 19.9465 16.7007 23.5009 16.7006C27.0554 16.7006 29.9366 19.5212 29.9366 23.0001C29.9366 26.479 27.0557 29.2983 23.5012 29.2983C19.9466 29.2983 17.0647 26.479 17.0647 23.0001Z"/>
<path fill-rule="evenodd" clip-rule="evenodd" d="M23.5012 18.9111C25.8084 18.9111 27.679 20.7417 27.679 23.0001C27.679 25.2582 25.8084 27.089 23.5012 27.089C21.1937 27.089 19.3234 25.2582 19.3234 23.0001C19.3234 20.7417 21.1937 18.9111 23.5012 18.9111V18.9111Z"/>
</svg>
