<svg width="47" height="47" viewBox="0 0 47 47" fill="#fcfcfc" xmlns="http://www.w3.org/2000/svg">
<path d="M23.5 0C10.5217 0 0 10.5213 0 23.5C0 36.4787 10.5217 47 23.5 47C36.4783 47 47 36.4787 47 23.5C47 10.5213 36.4783 0 23.5 0ZM3.72105 29.893C3.70807 29.9858 3.64124 30.0512 3.55758 30.0512C3.47343 30.0512 3.40612 29.9858 3.39458 29.892L3.09599 27.6644L3.39458 25.3983C3.40564 25.304 3.47343 25.2382 3.55758 25.2382C3.64124 25.2382 3.70807 25.3036 3.72105 25.3968L4.07494 27.6648L3.72105 29.893ZM5.23756 31.2489C5.22313 31.345 5.15293 31.4133 5.06735 31.4133C4.9808 31.4133 4.90964 31.3441 4.89762 31.2484L4.49661 27.6644L4.89762 23.9996C4.90916 23.9039 4.9808 23.8342 5.06735 23.8342C5.15341 23.8342 5.22313 23.902 5.23756 23.9996L5.69337 27.6644L5.23756 31.2489ZM6.87474 31.8552C6.86224 31.9711 6.77617 32.0547 6.66991 32.0547C6.56221 32.0547 6.47662 31.9711 6.46557 31.8542L6.08476 27.6653C6.08476 27.6653 6.46557 23.3173 6.46557 23.3168C6.47614 23.2009 6.56221 23.1168 6.66991 23.1168C6.77617 23.1168 6.86176 23.2009 6.87474 23.3168L7.307 27.6653L6.87474 31.8552ZM8.52587 31.9884C8.51433 32.1216 8.41144 32.223 8.28691 32.223C8.15997 32.223 8.05659 32.1216 8.0465 31.9884L7.68684 27.6663L8.0465 23.1985C8.05659 23.0639 8.15997 22.9629 8.28691 22.9629C8.41144 22.9629 8.51433 23.0639 8.52587 23.1971L8.93457 27.6658L8.52587 31.9884ZM10.19 32.0244C10.1799 32.1773 10.0611 32.2947 9.91592 32.2947C9.76927 32.2947 9.65099 32.1778 9.64137 32.0244L9.30191 27.6668L9.64137 23.5226C9.65147 23.3683 9.76975 23.2519 9.91592 23.2519C10.0616 23.2519 10.1799 23.3683 10.19 23.5212L10.5751 27.6673L10.19 32.0244ZM11.8676 32.0259V32.0239C11.8575 32.1946 11.7224 32.3298 11.5584 32.3298C11.393 32.3298 11.2579 32.1951 11.2487 32.0249L10.9309 27.6677L11.2487 20.9247C11.2579 20.7531 11.393 20.6189 11.5584 20.6189C11.7224 20.6189 11.8575 20.7531 11.8676 20.9243L12.2282 27.6677L11.8676 32.0259ZM13.5326 32.0225V32.0201C13.524 32.2115 13.3725 32.3605 13.1884 32.3605C13.0037 32.3605 12.8528 32.2115 12.8455 32.0215L12.5465 27.6908C12.5465 27.6908 12.8441 19.4068 12.8441 19.4063C12.8528 19.2154 13.0037 19.0659 13.1884 19.0659C13.3725 19.0659 13.524 19.2154 13.5326 19.4063L13.8697 27.6908L13.5326 32.0225ZM15.2612 31.9562V31.9538C15.2525 32.1643 15.0871 32.3283 14.8833 32.3283C14.6779 32.3283 14.5116 32.1639 14.5044 31.9557L14.2269 27.6697C14.2269 27.6697 14.5044 18.6942 14.5044 18.6933C14.5116 18.4827 14.6779 18.3177 14.8833 18.3177C15.0871 18.3177 15.253 18.4827 15.2612 18.6933L15.5747 27.6697L15.2612 31.9562ZM16.9782 31.9273C16.9714 32.1571 16.7892 32.3374 16.5652 32.3374C16.3392 32.3374 16.1584 32.1571 16.1526 31.9292L15.8949 27.6701L16.1517 18.3918C16.1589 18.1615 16.3397 17.9807 16.5652 17.9807C16.7897 17.9807 16.9719 18.161 16.9782 18.3918L17.2681 27.6706L16.9782 31.9273ZM18.7077 31.8903V31.8869C18.701 32.1365 18.5043 32.3336 18.2596 32.3336C18.0139 32.3336 17.8172 32.1365 17.8119 31.8893L17.5749 27.6711L17.8105 18.6293C17.8172 18.3793 18.0139 18.1836 18.2596 18.1836C18.5043 18.1836 18.701 18.3788 18.7077 18.6283L18.9745 27.6711L18.7077 31.8903ZM20.4511 31.8638V31.861C20.4458 32.1307 20.2333 32.3418 19.9679 32.3418C19.703 32.3418 19.49 32.1307 19.4847 31.8638L19.2688 27.6716L19.4847 18.9596C19.49 18.6899 19.703 18.4788 19.9679 18.4788C20.2333 18.4788 20.4458 18.6904 20.4511 18.9596L20.693 27.6725L20.4511 31.8638ZM22.2292 31.4234L22.2076 31.834C22.2052 31.9759 22.1451 32.1047 22.0518 32.1985C21.958 32.2913 21.8301 32.3495 21.6897 32.3495C21.5315 32.3495 21.3892 32.2764 21.2935 32.1619C21.2233 32.0773 21.1786 31.9701 21.1733 31.8537C21.1724 31.848 21.1719 31.8427 21.1719 31.8359C21.1719 31.8359 20.9757 27.6749 20.9757 27.6687L21.17 17.4023L21.1719 17.3047C21.1743 17.1234 21.269 16.9642 21.4108 16.8724C21.4911 16.8195 21.5863 16.7883 21.6897 16.7883C21.7945 16.7883 21.8936 16.821 21.9758 16.8767C22.1128 16.9695 22.2047 17.1263 22.2076 17.3042L22.4249 27.6716L22.2292 31.4234ZM23.9568 31.7783V31.7773V31.7734C23.9505 32.0768 23.7043 32.3245 23.4038 32.3245C23.1024 32.3245 22.8543 32.0768 22.8504 31.7773L22.7389 29.7535L22.6244 27.674L22.8499 16.4243L22.8509 16.3675C22.8528 16.1964 22.9326 16.0435 23.0562 15.942C23.1509 15.8632 23.2726 15.816 23.4048 15.816C23.5077 15.816 23.6039 15.8454 23.6861 15.8954C23.8447 15.992 23.9549 16.167 23.9577 16.3666L24.2025 27.6745L23.9568 31.7783ZM38.8847 32.335C38.8847 32.335 24.9848 32.3365 24.9713 32.335C24.6708 32.3052 24.4323 32.0663 24.4294 31.759C24.4294 31.759 24.4294 15.829 24.4294 15.8285C24.4323 15.5357 24.5328 15.3852 24.9122 15.2386C25.8858 14.8611 26.9903 14.6385 28.1221 14.6385C32.7509 14.6385 36.5436 18.187 36.9437 22.71C37.5409 22.46 38.1967 22.3206 38.8847 22.3206C41.6576 22.3206 43.9035 24.5679 43.9035 27.3398C43.904 30.1117 41.6576 32.335 38.8847 32.335Z"/>
</svg>
