<svg width="47" height="46" viewBox="0 0 47 46" fill="#fcfcfc" xmlns="http://www.w3.org/2000/svg">
<path fill-rule="evenodd" clip-rule="evenodd" d="M23.5 46C36.4787 46 47 35.7025 47 23C47 10.2975 36.4787 0 23.5 0C10.5213 0 0 10.2975 0 23C0 35.7025 10.5213 46 23.5 46ZM19.1917 33.5417C19.7632 33.5417 20.0244 33.2928 20.3401 32.992L20.3667 32.9667L23.1893 30.2805L29.0617 34.5267C30.1424 35.1103 30.9223 34.8082 31.1915 33.5447L35.0465 15.7651C35.4412 14.2164 34.4433 13.514 33.4095 13.9734L10.7731 22.5162C9.22795 23.1227 9.23696 23.9664 10.4914 24.3424L16.3004 26.1169L29.7489 17.8129C30.3838 17.4361 30.9665 17.6387 30.4882 18.0541L19.5917 27.6782L19.5916 27.6781L19.5915 27.6783L19.5912 27.6787L19.5915 27.6789L19.1917 33.5417Z"/>
</svg>
